<svg id="Layer_1" data-name="Layer 1" xmlns="http://www.w3.org/2000/svg" viewBox="0 0 571.59 288.64"><defs><style>.cls-1{font-size:208.88px;}.cls-1,.cls-2,.cls-3{fill:#231f20;}.cls-1,.cls-3{font-family:DavidLibre-Regular, David Libre;}.cls-3{font-size:105.4px;}</style></defs><title>Logo</title><text class="cls-1" transform="translate(0 173.79) scale(1.11 1)">MEIR</text><path class="cls-2" d="M224,367.58a13.2,13.2,0,0,0-1.13-2.92c-.56-1-.92-1.2-2.85-1.2h-3.53v17.15c0,2.75.29,3.14,3.63,3.35v1H209.84v-1c3.28-.21,3.56-.57,3.56-3.35V363.46h-3.2c-1.94,0-2.5.21-3.1,1.27a15.55,15.55,0,0,0-1.17,2.85h-1.05c.21-2.15.42-4.37.53-6.34h.81c.52.85.91.81,1.9.81h13.94a1.77,1.77,0,0,0,1.8-.81h.85c0,1.66.14,4.19.31,6.24Z" transform="translate(-203.82 -349.68)"/><path class="cls-2" d="M252.42,363c-2.92.28-3.2.46-3.2,3.41v14.13c0,3,.32,3.06,3.2,3.38v1H243v-1c2.92-.35,3.2-.42,3.2-3.38v-7.05h-12v7.05c0,2.92.28,3,3.17,3.38v1h-9.41v-1c2.86-.32,3.17-.42,3.17-3.38V366.45c0-2.95-.31-3.13-3.17-3.41v-1h9.41v1c-2.82.25-3.17.49-3.17,3.41v5.6h12v-5.6c0-2.92-.39-3.16-3.2-3.41v-1h9.43Z" transform="translate(-203.82 -349.68)"/><path class="cls-2" d="M274.26,379.34c-.21.92-1.16,4.55-1.51,5.6H255.63v-1c3.28-.25,3.52-.57,3.52-3.45V366.6c0-3.14-.38-3.31-3-3.56v-1H266.9c3.31,0,4.69,0,5.11-.07,0,.88.17,3.52.32,5.39l-1.06.18a11.73,11.73,0,0,0-1.06-2.68c-.56-1.16-1.37-1.41-3.48-1.41h-3.35c-1.09,0-1.16.11-1.16,1.13v7.78h3.91c2.64,0,2.81-.53,3.24-2.92h1.09v7.25h-1.09c-.46-2.53-.74-2.89-3.28-2.89h-3.87v7c0,2.47.77,2.68,2.53,2.72H268c2.15,0,2.5-.32,3.27-1.24a15.3,15.3,0,0,0,1.91-3.24Z" transform="translate(-203.82 -349.68)"/><path class="cls-2" d="M294,362.05a9.91,9.91,0,0,1,6,1.52,5.93,5.93,0,0,1,2.33,5c0,5.14-4.4,7.22-7.75,7.22a6.88,6.88,0,0,1-.95-.07l-2.43-.64v5.5c0,3,.25,3,3.49,3.38v1h-9.72v-1c3-.32,3.17-.53,3.17-3.45v-14c0-3.14-.39-3.21-3.17-3.49v-1Zm-2.85,11.8a6.38,6.38,0,0,0,2.57.46c2.36,0,5.28-1.2,5.28-5.64,0-3.87-2.53-5.42-5.49-5.42a3.18,3.18,0,0,0-2,.42c-.28.25-.39.67-.39,1.62Z" transform="translate(-203.82 -349.68)"/><path class="cls-2" d="M317.87,361.56a11.32,11.32,0,0,1,11.41,11.62c0,7.57-5.14,12.29-11.62,12.29A11.46,11.46,0,0,1,306,373.71C306,367.41,310.44,361.56,317.87,361.56Zm-.71,1.3c-3.94,0-7.53,3.31-7.53,9.9s3.59,11.37,8.59,11.37c4.26,0,7.47-3.17,7.47-10C325.69,366.77,321.78,362.86,317.16,362.86Z" transform="translate(-203.82 -349.68)"/><path class="cls-2" d="M351,379.34c-.21.92-1.16,4.55-1.51,5.6H332.34v-1c3.28-.25,3.53-.57,3.53-3.45V366.6c0-3.14-.39-3.31-3-3.56v-1h10.77c3.31,0,4.69,0,5.11-.07,0,.88.18,3.52.32,5.39l-1.06.18a11.73,11.73,0,0,0-1.06-2.68c-.56-1.16-1.37-1.41-3.48-1.41h-3.35c-1.09,0-1.16.11-1.16,1.13v7.78h3.91c2.64,0,2.82-.53,3.24-2.92h1.09v7.25h-1.09c-.46-2.53-.74-2.89-3.28-2.89h-3.87v7c0,2.47.78,2.68,2.54,2.72h3.27c2.15,0,2.5-.32,3.28-1.24a15.28,15.28,0,0,0,1.9-3.24Z" transform="translate(-203.82 -349.68)"/><path class="cls-2" d="M372,367.58a13.76,13.76,0,0,0-1.12-2.92c-.57-1-.92-1.2-2.86-1.2H364.5v17.15c0,2.75.28,3.14,3.63,3.35v1H357.88v-1c3.27-.21,3.56-.57,3.56-3.35V363.46h-3.21c-1.94,0-2.5.21-3.1,1.27a16.4,16.4,0,0,0-1.16,2.85h-1.06c.22-2.15.43-4.37.53-6.34h.81c.53.85.92.81,1.9.81h14a1.77,1.77,0,0,0,1.8-.81h.84c0,1.66.14,4.19.32,6.24Z" transform="translate(-203.82 -349.68)"/><path class="cls-2" d="M396.83,385.23c-.45,0-.84,0-1.3-.07a6.26,6.26,0,0,1-5.49-3c-1.31-1.8-2.57-4-3.7-5.81-.71-1.13-1.16-1.34-3-1.34h-1.23v5.53c0,3,.39,3.17,3.2,3.45v1H376v-1c2.92-.32,3.17-.46,3.17-3.45V366.45c0-3-.39-3.09-3.17-3.41v-1h9c2.57,0,4.3.32,5.63,1.2a5.26,5.26,0,0,1,2.4,4.65c0,3-1.94,4.93-4.54,6.06.63,1.09,2.14,3.45,3.2,5a31.74,31.74,0,0,0,2.78,3.63,5.06,5.06,0,0,0,2.57,1.62Zm-13-11.45a5.66,5.66,0,0,0,3.87-1,4.93,4.93,0,0,0,1.94-4.33c0-3.77-2.5-5.14-5.21-5.14a3.26,3.26,0,0,0-1.87.35c-.32.24-.42.6-.42,1.51v8.63Z" transform="translate(-203.82 -349.68)"/><path class="cls-2" d="M417.23,363c-2.47.28-2.89.67-4.3,2.92-1.58,2.57-2.89,5-4.61,8.14a3.67,3.67,0,0,0-.53,2.07v4.34c0,2.92.32,3.13,3.59,3.45v1H401.27v-1c3.21-.42,3.45-.5,3.45-3.45V376a3.62,3.62,0,0,0-.7-2c-1.23-2.29-2.43-4.51-4.33-7.82-1.38-2.39-1.73-2.81-4.12-3.06v-1h8.66v1c-2.53.35-2.39.81-1.76,2,1.48,2.71,3.13,5.88,4.61,8.52,1.27-2.36,3.28-6.2,4.27-8.14.81-1.76.7-2.11-2.08-2.39v-1h8Z" transform="translate(-203.82 -349.68)"/><path class="cls-2" d="M437.37,361.56a11.31,11.31,0,0,1,11.41,11.62c0,7.57-5.14,12.29-11.62,12.29a11.46,11.46,0,0,1-11.69-11.76C425.47,367.41,429.94,361.56,437.37,361.56Zm-.7,1.3c-3.94,0-7.54,3.31-7.54,9.9s3.6,11.37,8.6,11.37c4.26,0,7.46-3.17,7.46-10C445.19,366.77,441.28,362.86,436.67,362.86Z" transform="translate(-203.82 -349.68)"/><path class="cls-2" d="M467.59,367.55a10.83,10.83,0,0,0-1.09-2.61c-.67-1.2-1.2-1.48-3.17-1.48h-3.77c-1,0-1.12.11-1.12,1.13v8.13h4.36c2.54,0,2.72-.42,3.24-2.88h1.06v7.36H466c-.46-2.47-.71-3-3.21-3h-4.36v6.3c0,3.07.35,3.21,3.55,3.49v1H452.2v-1c2.86-.21,3.17-.46,3.17-3.49V366.53c0-3.07-.35-3.21-3.17-3.49v-1h11.17c3.17,0,4.36,0,5-.07,0,1.27.18,3.74.36,5.43Z" transform="translate(-203.82 -349.68)"/><path class="cls-2" d="M728.71,500.08a11.33,11.33,0,0,1,11.41,11.62c0,7.58-5.15,12.3-11.63,12.3a11.47,11.47,0,0,1-11.69-11.77C716.8,505.93,721.27,500.08,728.71,500.08Zm-.71,1.31c-3.94,0-7.54,3.31-7.54,9.89s3.6,11.38,8.6,11.38c4.26,0,7.46-3.17,7.46-10C736.52,505.29,732.61,501.39,728,501.39Z" transform="translate(-203.82 -349.68)"/><path class="cls-2" d="M758.92,506.07a10.83,10.83,0,0,0-1.09-2.61c-.67-1.19-1.2-1.48-3.17-1.48h-3.77c-1,0-1.12.11-1.12,1.13v8.14h4.36c2.54,0,2.71-.43,3.24-2.89h1.06v7.36h-1.09c-.46-2.47-.71-3-3.21-3h-4.36V519c0,3.07.35,3.21,3.55,3.49v1h-9.79v-1c2.86-.21,3.17-.46,3.17-3.49V505.05c0-3.07-.35-3.21-3.17-3.49v-1H754.7c3.17,0,4.36,0,5-.07,0,1.26.18,3.73.35,5.42Z" transform="translate(-203.82 -349.68)"/><text class="cls-3" transform="translate(0 251.33) scale(1.31 1)">NORWICH</text></svg>